<svg
  width="148"
  height="26"
  viewBox="0 0 148 26"
  fill="none"
  xmlns="http://www.w3.org/2000/svg"
>
  <path
    d="M10.7851 17.5973H6.92592L5.37534 25.6556H0L4.68619 1.54967H13.6795C15.2876 1.54967 16.6429 1.89404 17.7455 2.58278C18.8711 3.24857 19.6866 4.15541 20.192 5.30331C20.6974 6.42826 20.8237 7.66799 20.571 9.02252L20.2609 10.6755C20.0082 12.0989 19.4454 13.3272 18.5725 14.3603C17.6996 15.3934 16.5969 16.1969 15.2646 16.7709C13.9322 17.3219 12.4391 17.5973 10.7851 17.5973ZM12.5769 6.23311H9.16564L7.85626 12.9139H11.2675C12.1634 12.9139 12.9445 12.6728 13.6106 12.1907C14.2998 11.7086 14.7133 11.0199 14.8511 10.1245L15.0234 9.05695C15.1612 8.23046 15.0004 7.5532 14.541 7.02517C14.0815 6.49713 13.4269 6.23311 12.5769 6.23311Z"
    fill="#ffffff"
  />
  <path
    d="M26.4993 5.71656C25.5574 5.71656 24.7994 5.44106 24.2251 4.89007C23.6508 4.31612 23.4555 3.56998 23.6393 2.65166C23.8001 1.77925 24.2136 1.12495 24.8798 0.688743C25.5689 0.229581 26.35 0 27.2229 0C28.1417 0 28.8883 0.275497 29.4626 0.826492C30.0369 1.35453 30.2436 2.07771 30.0828 2.99603C29.922 3.84547 29.4971 4.51126 28.8079 4.99338C28.1417 5.4755 27.3722 5.71656 26.4993 5.71656ZM19.7456 25.6556L23.1225 8.23046H28.4978L25.121 25.6556H19.7456Z"
    fill="#ffffff"
  />
  <path
    d="M40.8645 21.4199L40.003 25.8278H37.0052C35.5121 25.8278 34.2602 25.6327 33.2494 25.2424C32.2616 24.8291 31.5725 24.1404 31.182 23.1762C30.7915 22.2119 30.757 20.8918 31.0786 19.2159L32.3535 12.7417H29.8381L30.6996 8.23046H33.215L34.1798 3.27152H39.5551L38.5903 8.23046H43.4143L42.5529 12.7417H37.7289L36.4539 19.2503C36.3391 19.8932 36.408 20.4212 36.6607 20.8344C36.9363 21.2247 37.4647 21.4199 38.2457 21.4199H40.8645Z"
    fill="#ffffff"
  />
  <path
    d="M50.4417 21.3166C50.993 21.3166 51.4295 21.1903 51.7511 20.9377C52.0957 20.6623 52.3828 20.2949 52.6125 19.8358H58.0568C57.5514 21.6035 56.6096 23.0728 55.2313 24.2437C53.876 25.4146 52.1646 26 50.0971 26C47.3865 26 45.4109 25.2194 44.1705 23.6583C42.93 22.0742 42.551 19.985 43.0334 17.3907L43.4469 15.1523C43.7455 13.4993 44.3083 12.1448 45.1353 11.0887C45.9852 10.0097 47.019 9.20618 48.2364 8.67815C49.4769 8.15011 50.8207 7.88609 52.2679 7.88609C53.6233 7.88609 54.8178 8.15011 55.8515 8.67815C56.8852 9.20618 57.6777 9.95232 58.2291 10.9166C58.7804 11.8578 58.9986 12.9828 58.8837 14.2914H53.6118C53.6348 13.7634 53.4854 13.3501 53.1638 13.0517C52.8652 12.7302 52.3828 12.5695 51.7166 12.5695C50.9126 12.5695 50.2924 12.8336 49.8559 13.3616C49.4195 13.8667 49.0749 14.7276 48.8222 15.9444L48.5121 17.5285C48.2364 18.9289 48.2939 19.9161 48.6844 20.4901C49.0979 21.0411 49.6837 21.3166 50.4417 21.3166Z"
    fill="#ffffff"
  />
  <path
    d="M64.7549 25.6556H59.3796L64.2725 0.516557H69.6479L67.5804 11.0543C68.3844 9.92936 69.2574 9.12583 70.1992 8.64371C71.164 8.13863 72.1748 7.88609 73.2314 7.88609C74.38 7.88609 75.3104 8.18455 76.0225 8.78146C76.7576 9.35541 77.2629 10.113 77.5386 11.0543C77.8372 11.9956 77.8717 13.0287 77.642 14.1536L75.4023 25.6556H70.0269L71.9565 15.7377C72.1633 14.6587 72.1288 13.8667 71.8531 13.3616C71.6005 12.8336 71.0377 12.5695 70.1647 12.5695C69.6594 12.5695 69.154 12.6958 68.6486 12.9483C68.1662 13.2009 67.7412 13.6141 67.3737 14.1881C67.0062 14.7391 66.7305 15.4852 66.5467 16.4265L64.7549 25.6556Z"
    fill="#ffffff"
  />
  <path
    d="M85.2797 19.3881C85.1648 20.0768 85.1878 20.5475 85.3486 20.8C85.5094 21.0296 85.831 21.1444 86.3134 21.1444H87.2093L86.3134 25.8278H84.4871C83.4305 25.8278 82.4886 25.6671 81.6616 25.3457C80.8576 25.0013 80.2719 24.3929 79.9043 23.5205C79.5597 22.6252 79.5368 21.3625 79.8354 19.7325L83.5912 0.516557H88.9666L85.2797 19.3881Z"
    fill="#ffffff"
  />
  <path
    d="M96.7343 26C95.1263 26 93.702 25.6327 92.4616 24.898C91.2441 24.1634 90.3597 23.1532 89.8084 21.8675C89.257 20.5589 89.1652 19.0552 89.5327 17.3563L90.084 14.8079C90.4286 13.2698 91.0259 11.9956 91.8758 10.9854C92.7487 9.95232 93.8054 9.18322 95.0459 8.67815C96.3093 8.15011 97.6646 7.88609 99.1118 7.88609C100.72 7.88609 102.121 8.25342 103.316 8.98808C104.533 9.69978 105.429 10.687 106.003 11.9497C106.578 13.1894 106.704 14.6243 106.382 16.2543L105.831 19.1126C105.555 20.513 104.981 21.7298 104.108 22.7629C103.235 23.796 102.156 24.5996 100.869 25.1735C99.6057 25.7245 98.2274 26 96.7343 26ZM98.6294 12.5695C97.7795 12.5695 97.0674 12.8221 96.4931 13.3272C95.9418 13.8093 95.5742 14.498 95.3904 15.3934L94.908 17.9417C94.7243 18.906 94.8162 19.7095 95.1837 20.3523C95.5742 20.9951 96.2404 21.3166 97.1822 21.3166C98.2159 21.3166 98.9855 21.0066 99.4909 20.3868C100.019 19.7669 100.375 18.9519 100.559 17.9417L101.007 15.5656C101.191 14.6702 101.053 13.947 100.593 13.396C100.134 12.845 99.4794 12.5695 98.6294 12.5695Z"
    fill="#ffffff"
  />
  <path
    d="M117.21 12.5695C116.245 12.5695 115.522 12.9369 115.039 13.6715C114.557 14.3832 114.224 15.2097 114.04 16.151L113.73 17.7351C113.546 18.6534 113.65 19.4799 114.04 20.2146C114.431 20.9492 115.097 21.3166 116.039 21.3166C117.004 21.3166 117.785 20.9837 118.382 20.3179C118.979 19.6291 119.358 18.8486 119.519 17.9762L119.898 16.0477C120.082 15.0834 119.921 14.2684 119.416 13.6026C118.91 12.9139 118.175 12.5695 117.21 12.5695ZM118.037 25.6556L118.485 23.2795C117.911 24.106 117.176 24.7717 116.28 25.2768C115.407 25.7589 114.408 26 113.282 26C111.881 26 110.755 25.6327 109.905 24.898C109.078 24.1404 108.516 23.1532 108.217 21.9364C107.918 20.7196 107.895 19.434 108.148 18.0795L108.561 15.8411C108.837 14.3947 109.308 13.0746 109.974 11.8808C110.64 10.664 111.513 9.69978 112.593 8.98808C113.673 8.25342 114.948 7.88609 116.418 7.88609C117.543 7.88609 118.485 8.17307 119.243 8.74702C120.024 9.29801 120.576 10.0212 120.897 10.9166L121.414 8.23046H126.789L123.413 25.6556H118.037Z"
    fill="#ffffff"
  />
  <path
    d="M136.87 12.5695C135.928 12.5695 135.216 12.9369 134.734 13.6715C134.252 14.3832 133.918 15.2097 133.735 16.151L133.425 17.7351C133.241 18.6534 133.344 19.4799 133.735 20.2146C134.125 20.9492 134.791 21.3166 135.733 21.3166C136.721 21.3166 137.502 20.9837 138.076 20.3179C138.674 19.6291 139.064 18.8026 139.248 17.8384L139.592 16.0477C139.776 15.0834 139.615 14.2684 139.11 13.6026C138.605 12.9139 137.858 12.5695 136.87 12.5695ZM137.732 25.6556L138.18 23.2795C137.605 24.106 136.882 24.7717 136.009 25.2768C135.136 25.7589 134.125 26 132.977 26C131.575 26 130.45 25.6327 129.6 24.898C128.773 24.1404 128.21 23.1532 127.911 21.9364C127.613 20.7196 127.59 19.434 127.842 18.0795L128.256 15.8411C128.532 14.3947 129.003 13.0746 129.669 11.8808C130.335 10.664 131.208 9.69978 132.287 8.98808C133.367 8.25342 134.642 7.88609 136.112 7.88609C137.261 7.88609 138.214 8.17307 138.972 8.74702C139.73 9.29801 140.27 10.0327 140.592 10.951L142.625 0.516557H148L143.107 25.6556H137.732Z"
    fill="#ffffff"
  />
</svg>